<svg width="11" height="18" viewBox="0 0 11 18" fill="none" xmlns="http://www.w3.org/2000/svg">
<path d="M8.62451 0.75H2.62451C2.12723 0.75 1.65032 0.947544 1.29869 1.29917C0.947056 1.65081 0.749512 2.12772 0.749512 2.625V15.375C0.749512 15.8723 0.947056 16.3492 1.29869 16.7008C1.65032 17.0525 2.12723 17.25 2.62451 17.25H8.62451C9.12179 17.25 9.59871 17.0525 9.95034 16.7008C10.302 16.3492 10.4995 15.8723 10.4995 15.375V2.625C10.4995 2.12772 10.302 1.65081 9.95034 1.29917C9.59871 0.947544 9.12179 0.75 8.62451 0.75ZM5.62451 16.5C5.00201 16.5 4.49951 15.9975 4.49951 15.375C4.49951 14.7525 5.00201 14.25 5.62451 14.25C6.24701 14.25 6.74951 14.7525 6.74951 15.375C6.74951 15.9975 6.24701 16.5 5.62451 16.5ZM8.99951 13.5H2.24951V3H8.99951V13.5Z" fill="black"/>
</svg>
