<svg width="16" height="12" viewBox="0 0 16 12" fill="none" xmlns="http://www.w3.org/2000/svg">
<path d="M1.99951 12C1.58701 12 1.23401 11.8533 0.940512 11.5597C0.646512 11.2657 0.499512 10.9125 0.499512 10.5V1.5C0.499512 1.0875 0.646512 0.7345 0.940512 0.441C1.23401 0.147 1.58701 0 1.99951 0H13.9995C14.412 0 14.7653 0.147 15.0593 0.441C15.3528 0.7345 15.4995 1.0875 15.4995 1.5V10.5C15.4995 10.9125 15.3528 11.2657 15.0593 11.5597C14.7653 11.8533 14.412 12 13.9995 12H1.99951ZM13.9995 3L8.39326 6.50625C8.33076 6.54375 8.26501 6.57175 8.19601 6.59025C8.12751 6.60925 8.06201 6.61875 7.99951 6.61875C7.93701 6.61875 7.87151 6.60925 7.80301 6.59025C7.73401 6.57175 7.66826 6.54375 7.60576 6.50625L1.99951 3V10.5H13.9995V3ZM7.99951 5.25L13.9995 1.5H1.99951L7.99951 5.25ZM1.99951 3.1875V2.08125V2.1V2.09025V3.1875Z" fill="black"/>
</svg>
